# Blender v2.83.2 OBJ File: ''
# www.blender.org
mtllib untitled.mtl
o scroll
v 42.286167 -200.000000 -15.390940
v 45.000000 -200.000000 -0.000033
v 0.000000 -200.000000 -0.000033
v 42.286167 -200.000000 -15.390940
v 37.824978 -107.340004 -13.767184
v 40.252502 -107.340004 -0.000017
v 45.000000 -200.000000 -0.000033
v 32.995701 -31.211813 -12.009459
v 35.113293 -31.211815 -0.000005
v 36.367043 -13.577842 -13.236526
v 36.367043 13.577861 -13.236522
v 38.701000 13.577859 0.000002
v 38.701000 -13.577844 -0.000002
v 32.995701 31.211832 -12.009450
v 37.824978 107.340004 -13.767150
v 40.252502 107.340004 0.000017
v 35.113293 31.211830 0.000005
v 42.286167 200.000000 -15.390875
v 45.000000 200.000000 0.000033
v 42.286167 200.000000 -15.390875
v 0.000000 200.000000 0.000033
v 45.000000 200.000000 0.000033
v 34.472000 -200.000000 -28.925476
v 34.472000 -200.000000 -28.925476
v 30.835205 -107.339996 -25.873827
v 26.898344 -31.211811 -22.570396
v 29.646688 -13.577840 -24.876528
v 29.646688 13.577863 -24.876524
v 26.898344 31.211834 -22.570385
v 30.835205 107.340012 -25.873793
v 34.472000 200.000000 -28.925411
v 34.472000 200.000000 -28.925411
v 22.499998 -200.000000 -38.971176
v 22.499998 -200.000000 -38.971176
v 20.126249 -107.339996 -34.859707
v 17.556644 -31.211809 -30.409012
v 19.350498 -13.577838 -33.516056
v 19.350498 13.577865 -33.516048
v 17.556644 31.211836 -30.409000
v 20.126249 107.340012 -34.859669
v 22.499998 200.000000 -38.971107
v 22.499998 200.000000 -38.971107
v 7.814165 -200.000000 -44.316383
v 7.814165 -200.000000 -44.316383
v 6.989770 -107.339996 -39.640995
v 6.097357 -31.211809 -34.579849
v 6.720356 -13.577837 -38.113052
v 6.720356 13.577866 -38.113045
v 6.097357 31.211836 -34.579842
v 6.989770 107.340012 -39.640957
v 7.814165 200.000000 -44.316315
v 7.814165 200.000000 -44.316315
v -7.814173 -200.000000 -44.316383
v -7.814173 -200.000000 -44.316383
v -6.989778 -107.339996 -39.640995
v -6.097363 -31.211809 -34.579849
v -6.720363 -13.577837 -38.113052
v -6.720363 13.577866 -38.113045
v -6.097363 31.211836 -34.579842
v -6.989778 107.340012 -39.640957
v -7.814173 200.000000 -44.316315
v -7.814173 200.000000 -44.316315
v -22.500002 -200.000000 -38.971172
v -22.500002 -200.000000 -38.971172
v -20.126251 -107.339996 -34.859703
v -17.556646 -31.211809 -30.409008
v -19.350502 -13.577838 -33.516052
v -19.350502 13.577865 -33.516045
v -17.556646 31.211836 -30.408997
v -20.126251 107.340012 -34.859665
v -22.500002 200.000000 -38.971104
v -22.500002 200.000000 -38.971104
v -34.472004 -200.000000 -28.925468
v -34.472004 -200.000000 -28.925468
v -30.835209 -107.339996 -25.873819
v -26.898348 -31.211811 -22.570391
v -29.646692 -13.577840 -24.876522
v -29.646692 13.577863 -24.876518
v -26.898348 31.211834 -22.570379
v -30.835209 107.340012 -25.873785
v -34.472004 200.000000 -28.925404
v -34.472004 200.000000 -28.925404
v -42.286171 -200.000000 -15.390933
v -42.286171 -200.000000 -15.390933
v -37.824982 -107.340004 -13.767178
v -32.995705 -31.211813 -12.009454
v -36.367050 -13.577842 -13.236519
v -36.367050 13.577861 -13.236515
v -32.995705 31.211832 -12.009444
v -37.824982 107.340004 -13.767143
v -42.286171 200.000000 -15.390868
v -42.286171 200.000000 -15.390868
v -45.000000 -200.000000 -0.000029
v -45.000000 -200.000000 -0.000029
v -40.252502 -107.340004 -0.000013
v -35.113293 -31.211815 -0.000002
v -38.701000 -13.577844 0.000002
v -38.701000 13.577859 0.000006
v -35.113293 31.211830 0.000008
v -40.252502 107.340004 0.000021
v -45.000000 200.000000 0.000037
v -45.000000 200.000000 0.000037
v -42.286163 -200.000000 15.390885
v -42.286163 -200.000000 15.390885
v -37.824974 -107.340004 13.767159
v -32.995697 -31.211817 12.009459
v -36.367039 -13.577846 13.236530
v -36.367039 13.577857 13.236534
v -32.995697 31.211828 12.009468
v -37.824974 107.340004 13.767194
v -42.286163 200.000000 15.390950
v -42.286163 200.000000 15.390950
v -34.471992 -200.000000 28.925417
v -34.471992 -200.000000 28.925417
v -30.835197 -107.340012 25.873798
v -26.898336 -31.211819 22.570391
v -29.646681 -13.577847 24.876530
v -29.646681 13.577855 24.876534
v -26.898336 31.211826 22.570402
v -30.835197 107.339996 25.873833
v -34.471992 200.000000 28.925482
v -34.471992 200.000000 28.925482
v -22.499996 -200.000000 38.971111
v -22.499996 -200.000000 38.971111
v -20.126247 -107.340012 34.859673
v -17.556644 -31.211821 30.409000
v -19.350498 -13.577849 33.516048
v -19.350498 13.577853 33.516056
v -17.556644 31.211824 30.409012
v -20.126247 107.339996 34.859711
v -22.499996 200.000000 38.971180
v -22.499996 200.000000 38.971180
v -7.814166 -200.000000 44.316315
v -7.814166 -200.000000 44.316315
v -6.989772 -107.340012 39.640957
v -6.097358 -31.211821 34.579842
v -6.720357 -13.577850 38.113045
v -6.720357 13.577852 38.113052
v -6.097358 31.211824 34.579849
v -6.989772 107.339996 39.640995
v -7.814166 200.000000 44.316383
v -7.814166 200.000000 44.316383
v 7.814188 -200.000000 44.316311
v 7.814188 -200.000000 44.316311
v 6.989791 -107.340012 39.640953
v 6.097375 -31.211821 34.579838
v 6.720376 -13.577850 38.113041
v 6.720376 13.577852 38.113049
v 6.097375 31.211824 34.579845
v 6.989791 107.339996 39.640991
v 7.814188 200.000000 44.316380
v 7.814188 200.000000 44.316380
v 22.500015 -200.000000 38.971100
v 22.500015 -200.000000 38.971100
v 20.126265 -107.340012 34.859661
v 17.556660 -31.211821 30.408993
v 19.350515 -13.577849 33.516041
v 19.350515 13.577853 33.516048
v 17.556660 31.211824 30.409004
v 20.126265 107.339996 34.859699
v 22.500015 200.000000 38.971169
v 22.500015 200.000000 38.971169
v 34.472008 -200.000000 28.925400
v 34.472008 -200.000000 28.925400
v 30.835211 -107.340012 25.873783
v 26.898350 -31.211819 22.570377
v 29.646696 -13.577847 24.876514
v 29.646696 13.577855 24.876518
v 26.898350 31.211826 22.570389
v 30.835211 107.339996 25.873817
v 34.472008 200.000000 28.925465
v 34.472008 200.000000 28.925465
v 42.286171 -200.000000 15.390863
v 42.286171 -200.000000 15.390863
v 37.824982 -107.340004 13.767139
v 32.995705 -31.211817 12.009440
v 36.367050 -13.577846 13.236511
v 36.367050 13.577857 13.236515
v 32.995705 31.211828 12.009450
v 37.824982 107.340004 13.767174
v 42.286171 200.000000 15.390928
v 42.286171 200.000000 15.390928
v 32.995701 -13.577842 -12.009457
v 35.113293 -13.577844 -0.000002
v 35.113293 13.577859 0.000002
v 32.995701 13.577861 -12.009453
v 26.898344 -13.577840 -22.570393
v 26.898344 13.577863 -22.570389
v 17.556644 -13.577839 -30.409008
v 17.556644 13.577864 -30.409004
v 6.097357 -13.577838 -34.579849
v 6.097357 13.577865 -34.579842
v -6.097363 -13.577838 -34.579849
v -6.097363 13.577865 -34.579842
v -17.556646 -13.577839 -30.409004
v -17.556646 13.577864 -30.409000
v -26.898348 -13.577840 -22.570387
v -26.898348 13.577863 -22.570383
v -32.995705 -13.577842 -12.009451
v -32.995705 13.577861 -12.009447
v -35.113293 -13.577844 0.000001
v -35.113293 13.577859 0.000005
v -32.995697 -13.577846 12.009461
v -32.995697 13.577857 12.009465
v -26.898336 -13.577847 22.570395
v -26.898336 13.577855 22.570398
v -17.556644 -13.577848 30.409004
v -17.556644 13.577854 30.409008
v -6.097358 -13.577849 34.579842
v -6.097358 13.577853 34.579849
v 6.097375 -13.577849 34.579838
v 6.097375 13.577853 34.579845
v 17.556660 -13.577848 30.408997
v 17.556660 13.577854 30.409000
v 26.898350 -13.577847 22.570381
v 26.898350 13.577855 22.570385
v 32.995705 -13.577846 12.009443
v 32.995705 13.577857 12.009447
vt 0.947976 0.751913
vt 0.955884 0.707061
vt 0.824745 0.707060
vt 0.305654 0.008647
vt 0.309833 0.229501
vt 0.343218 0.229242
vt 0.342799 0.008165
vt 0.312099 0.415987
vt 0.342903 0.415948
vt 0.311614 0.583857
vt 0.308729 0.770508
vt 0.342135 0.770768
vt 0.342432 0.584046
vt 0.305409 0.991689
vt 0.342587 0.991835
vt 0.945760 0.449738
vt 0.822695 0.404946
vt 0.953658 0.404946
vt 0.925203 0.791355
vt 0.268556 0.009761
vt 0.276495 0.230296
vt 0.281370 0.416270
vt 0.280865 0.583438
vt 0.275332 0.769731
vt 0.268209 0.990903
vt 0.923019 0.489128
vt 0.890315 0.820630
vt 0.231517 0.011509
vt 0.243230 0.231621
vt 0.250799 0.416795
vt 0.250258 0.582774
vt 0.241975 0.768413
vt 0.231001 0.989473
vt 0.888177 0.518364
vt 0.847517 0.836207
vt 0.194547 0.013891
vt 0.210063 0.233489
vt 0.220464 0.417582
vt 0.219880 0.581835
vt 0.208683 0.766538
vt 0.193795 0.987391
vt 0.845436 0.533920
vt 0.801973 0.836207
vt 0.157657 0.016911
vt 0.177017 0.235919
vt 0.190452 0.418661
vt 0.189810 0.580570
vt 0.175469 0.764076
vt 0.156602 0.984648
vt 0.799953 0.533920
vt 0.759176 0.820630
vt 0.120856 0.020574
vt 0.144111 0.238935
vt 0.160863 0.420079
vt 0.160144 0.578939
vt 0.142356 0.761006
vt 0.119435 0.981233
vt 0.757213 0.518364
vt 0.724287 0.791355
vt 0.084147 0.024882
vt 0.111355 0.242570
vt 0.131812 0.421924
vt 0.130986 0.576855
vt 0.109369 0.757296
vt 0.082302 0.977136
vt 0.722371 0.489128
vt 0.701515 0.751913
vt 0.047542 0.029842
vt 0.078751 0.246861
vt 0.103425 0.424339
vt 0.102461 0.574185
vt 0.076500 0.752897
vt 0.045210 0.972350
vt 0.699630 0.449738
vt 0.693606 0.707061
vt 0.011040 0.035452
vt 0.046288 0.251852
vt 0.075853 0.427547
vt 0.074712 0.570695
vt 0.043736 0.747762
vt 0.008165 0.966871
vt 0.691732 0.404946
vt 0.701515 0.662209
vt 0.640187 0.027693
vt 0.608855 0.247167
vt 0.641632 0.252304
vt 0.677236 0.033182
vt 0.582836 0.425856
vt 0.610578 0.429355
vt 0.581892 0.575629
vt 0.606593 0.753111
vt 0.639041 0.748109
vt 0.609463 0.572412
vt 0.637841 0.970105
vt 0.674339 0.964483
vt 0.699630 0.360154
vt 0.724287 0.622766
vt 0.603093 0.022900
vt 0.575985 0.242758
vt 0.554314 0.423176
vt 0.553502 0.578050
vt 0.573992 0.757407
vt 0.601239 0.975073
vt 0.722371 0.320765
vt 0.759176 0.593491
vt 0.565957 0.018801
vt 0.542988 0.239037
vt 0.525158 0.421084
vt 0.524451 0.579908
vt 0.541238 0.761047
vt 0.564532 0.979388
vt 0.757213 0.291529
vt 0.801973 0.577914
vt 0.528787 0.015382
vt 0.509877 0.235958
vt 0.495491 0.419449
vt 0.494868 0.581333
vt 0.508334 0.764068
vt 0.527730 0.983057
vt 0.799953 0.275973
vt 0.847517 0.577914
vt 0.491595 0.012632
vt 0.476671 0.233495
vt 0.465423 0.418184
vt 0.464862 0.582415
vt 0.475290 0.766503
vt 0.490842 0.986083
vt 0.845436 0.275973
vt 0.890315 0.593491
vt 0.454388 0.010544
vt 0.443379 0.231613
vt 0.435052 0.417233
vt 0.434538 0.583194
vt 0.442131 0.768366
vt 0.453871 0.988472
vt 0.888177 0.291529
vt 0.925203 0.622766
vt 0.417179 0.009109
vt 0.410021 0.230289
vt 0.404457 0.416563
vt 0.403972 0.583717
vt 0.408863 0.769695
vt 0.416830 0.990226
vt 0.923019 0.320765
vt 0.947976 0.662209
vt 0.379978 0.008317
vt 0.376626 0.229506
vt 0.373714 0.416144
vt 0.373245 0.584000
vt 0.375522 0.770494
vt 0.379732 0.991347
vt 0.945760 0.360154
vt 0.312238 0.460497
vt 0.342780 0.460509
vt 0.342544 0.539450
vt 0.311970 0.539336
vt 0.281760 0.460600
vt 0.281474 0.539064
vt 0.251450 0.460820
vt 0.251124 0.538711
vt 0.221395 0.461167
vt 0.221074 0.538219
vt 0.191679 0.461650
vt 0.191360 0.537524
vt 0.162439 0.462241
vt 0.162104 0.536692
vt 0.133857 0.462990
vt 0.133447 0.535628
vt 0.106090 0.463957
vt 0.105591 0.534382
vt 0.079678 0.465291
vt 0.079067 0.532693
vt 0.579701 0.465648
vt 0.606204 0.467347
vt 0.605621 0.534671
vt 0.579226 0.536017
vt 0.551842 0.464394
vt 0.551440 0.536964
vt 0.523194 0.463328
vt 0.522846 0.537763
vt 0.493940 0.462499
vt 0.493634 0.538360
vt 0.464205 0.461805
vt 0.463929 0.538847
vt 0.434160 0.461268
vt 0.433903 0.539194
vt 0.403859 0.460911
vt 0.403595 0.539380
vt 0.373348 0.460676
vt 0.373113 0.539493
vt 0.312176 0.468978
vt 0.312016 0.530853
vt 0.342568 0.530958
vt 0.342745 0.469002
vt 0.281714 0.469043
vt 0.281551 0.530621
vt 0.251429 0.469203
vt 0.251272 0.530328
vt 0.221408 0.469460
vt 0.221209 0.529922
vt 0.191777 0.469815
vt 0.191526 0.529352
vt 0.162618 0.470244
vt 0.162312 0.528675
vt 0.134023 0.470780
vt 0.133691 0.527823
vt 0.106167 0.471402
vt 0.105764 0.526908
vt 0.078843 0.471773
vt 0.078372 0.526079
vt 0.579473 0.473104
vt 0.579102 0.528583
vt 0.606438 0.528188
vt 0.606863 0.473886
vt 0.551589 0.472192
vt 0.551272 0.529179
vt 0.522988 0.471343
vt 0.522713 0.529757
vt 0.493783 0.470670
vt 0.493541 0.530195
vt 0.464127 0.470102
vt 0.463910 0.530555
vt 0.434062 0.469655
vt 0.433866 0.530811
vt 0.403737 0.469354
vt 0.403572 0.530939
vt 0.373292 0.469154
vt 0.373114 0.531012
vn 0.0000 -1.0000 0.0000
vn 0.9836 0.0504 -0.1734
vn 0.9826 0.0663 -0.1733
vn 0.9826 -0.0663 -0.1733
vn 0.9836 -0.0504 -0.1734
vn 0.0000 1.0000 0.0000
vn 0.8649 0.0504 -0.4994
vn 0.8641 0.0663 -0.4989
vn 0.8641 -0.0663 -0.4989
vn 0.8649 -0.0504 -0.4994
vn 0.6420 0.0504 -0.7651
vn 0.6414 0.0663 -0.7644
vn 0.6414 -0.0663 -0.7644
vn 0.6420 -0.0504 -0.7651
vn 0.3416 0.0504 -0.9385
vn 0.3413 0.0663 -0.9376
vn 0.3413 -0.0663 -0.9376
vn 0.3416 -0.0504 -0.9385
vn 0.0000 0.0504 -0.9987
vn 0.0000 0.0663 -0.9978
vn 0.0000 -0.0663 -0.9978
vn 0.0000 -0.0504 -0.9987
vn -0.3416 0.0504 -0.9385
vn -0.3413 0.0663 -0.9376
vn -0.3413 -0.0663 -0.9376
vn -0.3416 -0.0504 -0.9385
vn -0.6420 0.0504 -0.7651
vn -0.6414 0.0663 -0.7644
vn -0.6414 -0.0663 -0.7644
vn -0.6420 -0.0504 -0.7651
vn -0.8649 0.0504 -0.4994
vn -0.8641 0.0663 -0.4989
vn -0.8641 -0.0663 -0.4989
vn -0.8649 -0.0504 -0.4994
vn -0.9836 0.0504 -0.1734
vn -0.9826 0.0663 -0.1733
vn -0.9826 -0.0663 -0.1733
vn -0.9836 -0.0504 -0.1734
vn -0.9836 0.0504 0.1734
vn -0.9826 0.0663 0.1733
vn -0.9826 -0.0663 0.1733
vn -0.9836 -0.0504 0.1734
vn -0.8649 0.0504 0.4994
vn -0.8641 0.0663 0.4989
vn -0.8641 -0.0663 0.4989
vn -0.8649 -0.0504 0.4994
vn -0.6420 0.0504 0.7651
vn -0.6414 0.0663 0.7644
vn -0.6414 -0.0663 0.7644
vn -0.6420 -0.0504 0.7651
vn -0.3416 0.0504 0.9385
vn -0.3413 0.0663 0.9376
vn -0.3413 -0.0663 0.9376
vn -0.3416 -0.0504 0.9385
vn 0.0000 0.0504 0.9987
vn 0.0000 0.0663 0.9978
vn 0.0000 -0.0663 0.9978
vn 0.0000 -0.0504 0.9987
vn 0.3416 0.0504 0.9385
vn 0.3413 0.0663 0.9376
vn 0.3413 -0.0663 0.9376
vn 0.3416 -0.0504 0.9385
vn 0.6420 0.0504 0.7651
vn 0.6414 0.0663 0.7644
vn 0.6414 -0.0663 0.7644
vn 0.6420 -0.0504 0.7651
vn 0.8649 0.0504 0.4994
vn 0.8641 0.0663 0.4989
vn 0.8641 -0.0663 0.4989
vn 0.8649 -0.0504 0.4994
vn 0.9836 0.0504 0.1734
vn 0.9826 0.0663 0.1733
vn 0.9826 -0.0663 0.1733
vn 0.9836 -0.0504 0.1734
vn 0.9848 0.0000 -0.1736
vn 0.8660 0.0000 -0.5000
vn 0.6428 0.0000 -0.7660
vn 0.3420 0.0000 -0.9397
vn 0.0000 0.0000 -1.0000
vn -0.3420 0.0000 -0.9397
vn -0.6428 0.0000 -0.7660
vn -0.8660 0.0000 -0.5000
vn -0.9848 -0.0000 -0.1736
vn -0.9848 -0.0000 0.1736
vn -0.8660 -0.0000 0.5000
vn -0.6428 -0.0000 0.7660
vn -0.3420 -0.0000 0.9397
vn 0.0000 0.0000 1.0000
vn 0.3420 -0.0000 0.9397
vn 0.6428 -0.0000 0.7660
vn 0.8660 -0.0000 0.5000
vn 0.9848 0.0000 0.1736
usemtl Mat
s off
f 1/1/1 2/2/1 3/3/1
f 4/4/2 5/5/2 6/6/2 7/7/2
f 5/5/3 8/8/3 9/9/3 6/6/3
f 14/10/4 15/11/4 16/12/4 17/13/4
f 15/11/5 18/14/5 19/15/5 16/12/5
f 20/16/6 21/17/6 22/18/6
f 23/19/1 1/1/1 3/3/1
f 24/20/7 25/21/7 5/5/7 4/4/7
f 25/21/8 26/22/8 8/8/8 5/5/8
f 29/23/9 30/24/9 15/11/9 14/10/9
f 30/24/10 31/25/10 18/14/10 15/11/10
f 32/26/6 21/17/6 20/16/6
f 33/27/1 23/19/1 3/3/1
f 34/28/11 35/29/11 25/21/11 24/20/11
f 35/29/12 36/30/12 26/22/12 25/21/12
f 39/31/13 40/32/13 30/24/13 29/23/13
f 40/32/14 41/33/14 31/25/14 30/24/14
f 42/34/6 21/17/6 32/26/6
f 43/35/1 33/27/1 3/3/1
f 44/36/15 45/37/15 35/29/15 34/28/15
f 45/37/16 46/38/16 36/30/16 35/29/16
f 49/39/17 50/40/17 40/32/17 39/31/17
f 50/40/18 51/41/18 41/33/18 40/32/18
f 52/42/6 21/17/6 42/34/6
f 53/43/1 43/35/1 3/3/1
f 54/44/19 55/45/19 45/37/19 44/36/19
f 55/45/20 56/46/20 46/38/20 45/37/20
f 59/47/21 60/48/21 50/40/21 49/39/21
f 60/48/22 61/49/22 51/41/22 50/40/22
f 62/50/6 21/17/6 52/42/6
f 63/51/1 53/43/1 3/3/1
f 64/52/23 65/53/23 55/45/23 54/44/23
f 65/53/24 66/54/24 56/46/24 55/45/24
f 69/55/25 70/56/25 60/48/25 59/47/25
f 70/56/26 71/57/26 61/49/26 60/48/26
f 72/58/6 21/17/6 62/50/6
f 73/59/1 63/51/1 3/3/1
f 74/60/27 75/61/27 65/53/27 64/52/27
f 75/61/28 76/62/28 66/54/28 65/53/28
f 79/63/29 80/64/29 70/56/29 69/55/29
f 80/64/30 81/65/30 71/57/30 70/56/30
f 82/66/6 21/17/6 72/58/6
f 83/67/1 73/59/1 3/3/1
f 84/68/31 85/69/31 75/61/31 74/60/31
f 85/69/32 86/70/32 76/62/32 75/61/32
f 89/71/33 90/72/33 80/64/33 79/63/33
f 90/72/34 91/73/34 81/65/34 80/64/34
f 92/74/6 21/17/6 82/66/6
f 93/75/1 83/67/1 3/3/1
f 94/76/35 95/77/35 85/69/35 84/68/35
f 95/77/36 96/78/36 86/70/36 85/69/36
f 99/79/37 100/80/37 90/72/37 89/71/37
f 100/80/38 101/81/38 91/73/38 90/72/38
f 102/82/6 21/17/6 92/74/6
f 103/83/1 93/75/1 3/3/1
f 104/84/39 105/85/39 95/86/39 94/87/39
f 105/85/40 106/88/40 96/89/40 95/86/40
f 109/90/41 110/91/41 100/92/41 99/93/41
f 110/91/42 111/94/42 101/95/42 100/92/42
f 112/96/6 21/17/6 102/82/6
f 113/97/1 103/83/1 3/3/1
f 114/98/43 115/99/43 105/85/43 104/84/43
f 115/99/44 116/100/44 106/88/44 105/85/44
f 119/101/45 120/102/45 110/91/45 109/90/45
f 120/102/46 121/103/46 111/94/46 110/91/46
f 122/104/6 21/17/6 112/96/6
f 123/105/1 113/97/1 3/3/1
f 124/106/47 125/107/47 115/99/47 114/98/47
f 125/107/48 126/108/48 116/100/48 115/99/48
f 129/109/49 130/110/49 120/102/49 119/101/49
f 130/110/50 131/111/50 121/103/50 120/102/50
f 132/112/6 21/17/6 122/104/6
f 133/113/1 123/105/1 3/3/1
f 134/114/51 135/115/51 125/107/51 124/106/51
f 135/115/52 136/116/52 126/108/52 125/107/52
f 139/117/53 140/118/53 130/110/53 129/109/53
f 140/118/54 141/119/54 131/111/54 130/110/54
f 142/120/6 21/17/6 132/112/6
f 143/121/1 133/113/1 3/3/1
f 144/122/55 145/123/55 135/115/55 134/114/55
f 145/123/56 146/124/56 136/116/56 135/115/56
f 149/125/57 150/126/57 140/118/57 139/117/57
f 150/126/58 151/127/58 141/119/58 140/118/58
f 152/128/6 21/17/6 142/120/6
f 153/129/1 143/121/1 3/3/1
f 154/130/59 155/131/59 145/123/59 144/122/59
f 155/131/60 156/132/60 146/124/60 145/123/60
f 159/133/61 160/134/61 150/126/61 149/125/61
f 160/134/62 161/135/62 151/127/62 150/126/62
f 162/136/6 21/17/6 152/128/6
f 163/137/1 153/129/1 3/3/1
f 164/138/63 165/139/63 155/131/63 154/130/63
f 165/139/64 166/140/64 156/132/64 155/131/64
f 169/141/65 170/142/65 160/134/65 159/133/65
f 170/142/66 171/143/66 161/135/66 160/134/66
f 172/144/6 21/17/6 162/136/6
f 173/145/1 163/137/1 3/3/1
f 174/146/67 175/147/67 165/139/67 164/138/67
f 175/147/68 176/148/68 166/140/68 165/139/68
f 179/149/69 180/150/69 170/142/69 169/141/69
f 180/150/70 181/151/70 171/143/70 170/142/70
f 182/152/6 21/17/6 172/144/6
f 2/2/1 173/145/1 3/3/1
f 7/7/71 6/6/71 175/147/71 174/146/71
f 6/6/72 9/9/72 176/148/72 175/147/72
f 17/13/73 16/12/73 180/150/73 179/149/73
f 16/12/74 19/15/74 181/151/74 180/150/74
f 22/18/6 21/17/6 182/152/6
f 8/8/75 183/153/75 184/154/75 9/9/75
f 17/13/75 185/155/75 186/156/75 14/10/75
f 26/22/76 187/157/76 183/153/76 8/8/76
f 14/10/76 186/156/76 188/158/76 29/23/76
f 36/30/77 189/159/77 187/157/77 26/22/77
f 29/23/77 188/158/77 190/160/77 39/31/77
f 46/38/78 191/161/78 189/159/78 36/30/78
f 39/31/78 190/160/78 192/162/78 49/39/78
f 56/46/79 193/163/79 191/161/79 46/38/79
f 49/39/79 192/162/79 194/164/79 59/47/79
f 66/54/80 195/165/80 193/163/80 56/46/80
f 59/47/80 194/164/80 196/166/80 69/55/80
f 76/62/81 197/167/81 195/165/81 66/54/81
f 69/55/81 196/166/81 198/168/81 79/63/81
f 86/70/82 199/169/82 197/167/82 76/62/82
f 79/63/82 198/168/82 200/170/82 89/71/82
f 96/78/83 201/171/83 199/169/83 86/70/83
f 89/71/83 200/170/83 202/172/83 99/79/83
f 106/88/84 203/173/84 201/174/84 96/89/84
f 99/93/84 202/175/84 204/176/84 109/90/84
f 116/100/85 205/177/85 203/173/85 106/88/85
f 109/90/85 204/176/85 206/178/85 119/101/85
f 126/108/86 207/179/86 205/177/86 116/100/86
f 119/101/86 206/178/86 208/180/86 129/109/86
f 136/116/87 209/181/87 207/179/87 126/108/87
f 129/109/87 208/180/87 210/182/87 139/117/87
f 146/124/88 211/183/88 209/181/88 136/116/88
f 139/117/88 210/182/88 212/184/88 149/125/88
f 156/132/89 213/185/89 211/183/89 146/124/89
f 149/125/89 212/184/89 214/186/89 159/133/89
f 166/140/90 215/187/90 213/185/90 156/132/90
f 159/133/90 214/186/90 216/188/90 169/141/90
f 176/148/91 217/189/91 215/187/91 166/140/91
f 169/141/91 216/188/91 218/190/91 179/149/91
f 9/9/92 184/154/92 217/189/92 176/148/92
f 179/149/92 218/190/92 185/155/92 17/13/92
usemtl Material.001
f 10/191/75 11/192/75 12/193/75 13/194/75
f 27/195/76 28/196/76 11/192/76 10/191/76
f 37/197/77 38/198/77 28/196/77 27/195/77
f 47/199/78 48/200/78 38/198/78 37/197/78
f 57/201/79 58/202/79 48/200/79 47/199/79
f 67/203/80 68/204/80 58/202/80 57/201/80
f 77/205/81 78/206/81 68/204/81 67/203/81
f 87/207/82 88/208/82 78/206/82 77/205/82
f 97/209/83 98/210/83 88/208/83 87/207/83
f 107/211/84 108/212/84 98/213/84 97/214/84
f 117/215/85 118/216/85 108/212/85 107/211/85
f 127/217/86 128/218/86 118/216/86 117/215/86
f 137/219/87 138/220/87 128/218/87 127/217/87
f 147/221/88 148/222/88 138/220/88 137/219/88
f 157/223/89 158/224/89 148/222/89 147/221/89
f 167/225/90 168/226/90 158/224/90 157/223/90
f 177/227/91 178/228/91 168/226/91 167/225/91
f 13/194/92 12/193/92 178/228/92 177/227/92
f 183/153/1 10/191/1 13/194/1 184/154/1
f 185/155/6 12/193/6 11/192/6 186/156/6
f 187/157/1 27/195/1 10/191/1 183/153/1
f 186/156/6 11/192/6 28/196/6 188/158/6
f 189/159/1 37/197/1 27/195/1 187/157/1
f 188/158/6 28/196/6 38/198/6 190/160/6
f 191/161/1 47/199/1 37/197/1 189/159/1
f 190/160/6 38/198/6 48/200/6 192/162/6
f 193/163/1 57/201/1 47/199/1 191/161/1
f 192/162/6 48/200/6 58/202/6 194/164/6
f 195/165/1 67/203/1 57/201/1 193/163/1
f 194/164/6 58/202/6 68/204/6 196/166/6
f 197/167/1 77/205/1 67/203/1 195/165/1
f 196/166/6 68/204/6 78/206/6 198/168/6
f 199/169/1 87/207/1 77/205/1 197/167/1
f 198/168/6 78/206/6 88/208/6 200/170/6
f 201/171/1 97/209/1 87/207/1 199/169/1
f 200/170/6 88/208/6 98/210/6 202/172/6
f 203/173/1 107/211/1 97/214/1 201/174/1
f 202/175/6 98/213/6 108/212/6 204/176/6
f 205/177/1 117/215/1 107/211/1 203/173/1
f 204/176/6 108/212/6 118/216/6 206/178/6
f 207/179/1 127/217/1 117/215/1 205/177/1
f 206/178/6 118/216/6 128/218/6 208/180/6
f 209/181/1 137/219/1 127/217/1 207/179/1
f 208/180/6 128/218/6 138/220/6 210/182/6
f 211/183/1 147/221/1 137/219/1 209/181/1
f 210/182/6 138/220/6 148/222/6 212/184/6
f 213/185/1 157/223/1 147/221/1 211/183/1
f 212/184/6 148/222/6 158/224/6 214/186/6
f 215/187/1 167/225/1 157/223/1 213/185/1
f 214/186/6 158/224/6 168/226/6 216/188/6
f 217/189/1 177/227/1 167/225/1 215/187/1
f 216/188/6 168/226/6 178/228/6 218/190/6
f 184/154/1 13/194/1 177/227/1 217/189/1
f 218/190/6 178/228/6 12/193/6 185/155/6
